HIERARCHY
ROOT Hips
{
    OFFSET 0.000000 0.000000 0.000000
    CHANNELS 6 Xposition Yposition Zposition Zrotation Xrotation Yrotation
    JOINT Spine
    {
        OFFSET -0.000000 0.081343 0.000000
        CHANNELS 3 Zrotation Xrotation Yrotation
        JOINT Spine1
        {
            OFFSET -0.000000 0.243280 0.000000
            CHANNELS 3 Zrotation Xrotation Yrotation
            JOINT Neck
            {
                OFFSET -0.000000 0.242281 0.022026
                CHANNELS 3 Zrotation Xrotation Yrotation
                JOINT Head
                {
                    OFFSET -0.000000 0.149025 -0.021289
                    CHANNELS 3 Zrotation Xrotation Yrotation
                    End Site
                    {
                        OFFSET -0.000000 0.198396 0.000000
                    }
                }
            }
            JOINT LeftShoulder
            {
                OFFSET 0.039707 0.224479 -0.002125
                CHANNELS 3 Zrotation Xrotation Yrotation
                JOINT LeftArm
                {
                    OFFSET 0.116942 0.000000 0.000000
                    CHANNELS 3 Zrotation Xrotation Yrotation
                    JOINT LeftForeArm
                    {
                        OFFSET 0.282002 0.000000 0.000000
                        CHANNELS 3 Zrotation Xrotation Yrotation
                        JOINT LeftHand
                        {
                            OFFSET 0.358743 0.000000 0.000000
                            CHANNELS 3 Zrotation Xrotation Yrotation
                            End Site
                            {
                                OFFSET 0.148797 0.000000 0.000000
                            }
                        }
                    }
                }
            }
            JOINT RightShoulder
            {
                OFFSET -0.039404 0.224479 -0.002125
                CHANNELS 3 Zrotation Xrotation Yrotation
                JOINT RightArm
                {
                    OFFSET -0.116942 0.000000 0.000000
                    CHANNELS 3 Zrotation Xrotation Yrotation
                    JOINT RightForeArm
                    {
                        OFFSET -0.282002 0.000000 0.000000
                        CHANNELS 3 Zrotation Xrotation Yrotation
                        JOINT RightHand
                        {
                            OFFSET -0.358743 0.000000 0.000000
                            CHANNELS 3 Zrotation Xrotation Yrotation
                            End Site
                            {
                                OFFSET -0.148797 0.000000 0.000000
                            }
                        }
                    }
                }
            }
        }
    }
    JOINT LeftUpLeg
    {
        OFFSET 0.099198 0.000000 0.000000
        CHANNELS 3 Zrotation Xrotation Yrotation
        JOINT LeftLeg
        {
            OFFSET -0.000000 -0.332973 0.000000
            CHANNELS 3 Zrotation Xrotation Yrotation
            JOINT LeftFoot
            {
                OFFSET -0.000000 -0.491254 0.000000
                CHANNELS 3 Zrotation Xrotation Yrotation
                JOINT LeftToeBase
                {
                    OFFSET -0.000000 -0.064479 0.148797
                    CHANNELS 3 Zrotation Xrotation Yrotation
                    End Site
                    {
                        OFFSET -0.000000 0.000000 0.039679
                    }
                }
            }
        }
    }
    JOINT RightUpLeg
    {
        OFFSET -0.099198 0.000000 0.000000
        CHANNELS 3 Zrotation Xrotation Yrotation
        JOINT RightLeg
        {
            OFFSET -0.000000 -0.332973 0.000000
            CHANNELS 3 Zrotation Xrotation Yrotation
            JOINT RightFoot
            {
                OFFSET -0.000000 -0.491254 0.000000
                CHANNELS 3 Zrotation Xrotation Yrotation
                JOINT RightToeBase
                {
                    OFFSET -0.000000 -0.064479 0.148797
                    CHANNELS 3 Zrotation Xrotation Yrotation
                    End Site
                    {
                        OFFSET -0.000000 0.000000 0.039679
                    }
                }
            }
        }
    }
}
MOTION
Frames:    7
Frame Time:    0.010000
-0.359926    0.836019    -0.699772    5.463683    2.005770    -57.444550    6.233632    -0.600504    -10.164731    -10.808513    5.399773    -2.887023    10.221321    5.235755    7.890378    -8.134817    -6.594114    5.555027    -12.849629    33.592281    -2.442543    -25.396042    29.632298    -42.468155    53.941376    4.590146    -47.841961    35.193192    27.224321    -8.195805    2.496521    22.597759    13.688261    35.938488    36.368374    18.362152    -20.403645    3.149215    36.845215    9.729348    10.248470    3.235321    21.158794    -35.352600    -6.831720    -10.940740    33.238049    -0.413979    -5.188479    -6.620152    21.125534    0.000000    0.000000    0.000000    -24.415628    -21.974466    -29.060303    -10.645758    42.919506    19.125835    22.814009    -5.536493    9.176416    0.000000    0.000000    0.000000    
-0.359492    0.839112    -0.705271    5.599817    1.959919    -57.066010    6.266419    -0.633598    -10.216106    -10.673253    5.282717    -2.922142    10.990423    5.614901    8.400558    -9.706869    -6.820826    5.714554    -12.698464    34.059078    -2.509943    -25.357634    30.465517    -43.250656    55.559978    4.709952    -46.626083    34.338055    27.366144    -8.785843    2.643707    22.548347    13.536996    36.215614    36.597847    17.899393    -20.723145    2.761261    36.913574    9.575089    9.970010    3.065530    20.589668    -35.502064    -5.555280    -11.498060    34.079716    0.145401    -5.246670    -7.167303    21.622875    0.000000    0.000000    0.000000    -24.003223    -22.015100    -28.995981    -10.699657    42.744202    19.090662    22.433146    -5.735875    8.372140    0.000000    0.000000    0.000000    
-0.358851    0.842079    -0.710685    5.767908    1.976692    -56.610950    6.298738    -0.670261    -10.295777    -10.429301    5.115693    -2.976064    11.227744    5.675070    8.805829    -10.458459    -6.728902    5.977096    -12.664276    34.407085    -2.516975    -25.292231    31.002235    -43.791218    56.523441    4.400674    -46.082745    33.824100    27.468380    -8.181574    2.708829    22.527327    13.281529    36.556053    36.382450    17.481237    -20.992346    2.942488    37.139690    9.634934    10.293172    3.128044    19.913107    -35.856647    -4.127689    -11.775721    35.027077    3.533264    -6.814113    -7.141928    19.492718    0.000000    0.000000    0.000000    -23.600559    -21.811424    -28.202049    -10.228110    42.701366    18.090427    22.433146    -5.735875    8.372140    0.000000    0.000000    0.000000    
-0.358270    0.844966    -0.716165    5.938111    2.210970    -56.160049    6.488984    -0.836491    -10.354957    -10.233057    4.950754    -3.023026    10.751729    5.048310    9.168465    -9.717553    -5.707300    6.574122    -12.594496    34.739872    -2.506765    -24.997753    31.782532    -44.578053    57.897457    4.503824    -45.051014    32.511513    27.961624    -7.294967    2.905799    22.499401    12.994049    36.842815    36.509922    17.050894    -21.270170    2.697148    37.182941    9.442482    10.139374    2.990002    19.385569    -36.279346    -2.451529    -11.737796    36.192902    4.932750    -6.454916    -7.335436    18.857655    0.000000    0.000000    0.000000    -22.766266    -22.497375    -28.075642    -9.358871    41.851860    17.093706    21.152889    -6.582331    6.522318    0.000000    0.000000    0.000000    
-0.357608    0.847578    -0.721214    6.090654    2.317035    -55.599552    6.581533    -0.957554    -10.503597    -10.052784    4.747326    -3.100802    10.980868    5.240453    9.476227    -10.304721    -5.718910    6.777213    -12.488737    35.004189    -2.624079    -24.578316    32.629112    -45.356171    58.666782    4.154799    -43.942360    32.783112    27.312473    -7.423275    3.026772    22.568689    12.832661    37.215759    36.702572    16.555326    -21.696573    2.423289    37.139542    9.455878    10.004090    2.947772    18.366522    -36.534801    -0.270053    -10.572237    37.530483    1.221491    -5.421520    -8.235731    22.140860    0.000000    0.000000    0.000000    -22.665569    -21.027094    -27.020763    -8.557270    41.769962    16.192530    21.152889    -6.582331    6.522318    0.000000    0.000000    0.000000    
-0.388040    0.861115    -0.730478    -1.617709    -0.622279    -58.986305    4.261270    4.932821    -7.882187    -6.426551    7.638207    -2.138669    11.174924    5.350673    9.782866    -10.826964    -5.675634    6.992628    -12.450013    35.271965    -2.580308    -24.332724    33.237389    -45.852097    59.536671    3.736076    -43.500515    35.028931    26.317448    -9.677018    3.076430    22.551821    12.604321    37.608257    37.053917    16.125307    -22.102331    2.085004    37.054691    9.489440    9.785904    2.859637    22.982460    -22.288313    4.425581    -11.978807    33.947617    1.249524    -5.182677    -8.412088    20.588942    0.000000    0.000000    0.000000    -14.164895    -12.000859    -16.787197    -7.393167    36.430580    11.749197    19.353193    -7.020206    3.962368    0.000000    0.000000    0.000000    
-0.388203    0.862468    -0.738067    -0.993215    -0.486253    -60.827618    3.144561    4.631543    -6.134680    -5.479877    7.383653    -1.650481    11.428218    5.442698    10.026628    -11.365756    -5.603068    7.134983    -12.385540    35.384388    -2.616968    -24.068617    33.576996    -46.232662    59.462696    3.367836    -43.314522    33.107628    26.350786    -8.343011    3.138870    22.509190    12.376426    38.057697    37.031620    15.642591    -22.205622    2.044085    37.128834    9.309134    9.812999    3.112693    23.539267    -21.447992    9.475014    -11.439867    34.880909    -1.073785    -4.070079    -9.175434    22.117893    0.000000    0.000000    0.000000    -13.408021    -12.714172    -13.634004    -8.331238    37.948391    11.284507    19.353193    -7.020206    3.962368    0.000000    0.000000    0.000000    
